<svg width="25" height="25" viewBox="0 0 25 25" fill="none" xmlns="http://www.w3.org/2000/svg">
<path d="M20.2239 7.9552H4.22388C3.11931 7.9552 2.22388 8.85063 2.22388 9.9552V19.9552C2.22388 21.0598 3.11931 21.9552 4.22388 21.9552H20.2239C21.3284 21.9552 22.2239 21.0598 22.2239 19.9552V9.9552C22.2239 8.85063 21.3284 7.9552 20.2239 7.9552Z" stroke="#3B82F6" stroke-width="2" stroke-linecap="round" stroke-linejoin="round"/>
<path d="M16.2239 21.9552V5.9552C16.2239 5.42477 16.0132 4.91606 15.6381 4.54099C15.263 4.16591 14.7543 3.9552 14.2239 3.9552H10.2239C9.69344 3.9552 9.18474 4.16591 8.80966 4.54099C8.43459 4.91606 8.22388 5.42477 8.22388 5.9552V21.9552" stroke="#3B82F6" stroke-width="2" stroke-linecap="round" stroke-linejoin="round"/>
</svg>
