<svg width="200" height="200" viewBox="0 0 200 200" fill="none" xmlns="http://www.w3.org/2000/svg">
<g clip-path="url(#clip0_41_28)">
<rect width="200" height="200" rx="100" fill="url(#paint0_linear_41_28)"/>
<g filter="url(#filter0_g_41_28)">
<path fill-rule="evenodd" clip-rule="evenodd" d="M28.4412 116.928C47.368 112.782 73.9089 110.986 83.7825 125.907C93.9377 141.254 66.4777 157.238 66.8898 175.032C67.3228 193.725 95.43 209.455 86.1058 226.22C76.7321 243.073 49.3744 246.988 28.4412 244.161C9.50027 241.604 -0.772337 225.009 -13.9965 212.703C-26.6876 200.893 -48.0139 191.24 -45.8468 175.032C-43.6906 158.907 -18.7166 156.09 -4.99122 145.355C7.04532 135.941 12.8662 120.34 28.4412 116.928Z" fill="#63A6FF"/>
</g>
<g filter="url(#filter1_g_41_28)">
<path fill-rule="evenodd" clip-rule="evenodd" d="M75.1297 12.0085C69.3344 12.3072 67.8278 21.3052 62.4418 23.4785C54.9166 26.5152 44.0111 20.3912 38.8217 26.6597C34.1224 32.3363 39.7321 41.1172 42.0315 48.1336C43.9957 54.1273 47.1914 59.3587 51.1436 64.2593C55.2166 69.3097 58.8478 77.1455 65.3098 76.9979C72.3229 76.8378 75.4303 67.8239 81.0333 63.5766C84.2675 61.1249 87.5831 59.1789 91.2089 57.365C97.8249 54.0552 107.795 55.2065 111.078 48.546C114.064 42.4887 109.212 34.8304 104.852 29.6864C100.915 25.0422 93.9036 25.2323 88.6813 22.1262C83.739 19.1867 80.8632 11.713 75.1297 12.0085Z" fill="white"/>
</g>
<g filter="url(#filter2_g_41_28)">
<path fill-rule="evenodd" clip-rule="evenodd" d="M21.1297 5.00852C15.3344 5.3072 13.8278 14.3052 8.44184 16.4785C0.916569 19.5152 -9.98895 13.3912 -15.1783 19.6597C-19.8776 25.3363 -14.2679 34.1172 -11.9685 41.1336C-10.0043 47.1273 -6.8086 52.3587 -2.85641 57.2593C1.21663 62.3097 4.84776 70.1455 11.3098 69.9979C18.3229 69.8378 21.4303 60.8239 27.0333 56.5766C30.2675 54.1249 33.5831 52.1789 37.2089 50.365C43.8249 47.0552 53.7954 48.2065 57.0784 41.546C60.0639 35.4887 55.2123 27.8304 50.8516 22.6864C46.9145 18.0422 39.9036 18.2323 34.6813 15.1262C29.739 12.1867 26.8632 4.71302 21.1297 5.00852Z" fill="white"/>
</g>
<g filter="url(#filter3_g_41_28)">
<path fill-rule="evenodd" clip-rule="evenodd" d="M41.1297 -17.9915C35.3344 -17.6928 33.8278 -8.69483 28.4418 -6.52146C20.9166 -3.48481 10.0111 -9.60882 4.8217 -3.34025C0.122433 2.3363 5.73209 11.1172 8.03147 18.1336C9.99571 24.1273 13.1914 29.3587 17.1436 34.2593C21.2166 39.3097 24.8478 47.1455 31.3098 46.9979C38.3229 46.8378 41.4303 37.8239 47.0333 33.5766C50.2675 31.1249 53.5831 29.1789 57.2089 27.365C63.8249 24.0552 73.7954 25.2065 77.0784 18.546C80.0639 12.4887 75.2123 4.83037 70.8516 -0.313608C66.9145 -4.95776 59.9036 -4.76769 54.6813 -7.8738C49.739 -10.8133 46.8632 -18.287 41.1297 -17.9915Z" fill="white"/>
</g>
<g filter="url(#filter4_g_41_28)">
<path fill-rule="evenodd" clip-rule="evenodd" d="M68.1297 -22.9915C62.3344 -22.6928 60.8278 -13.6948 55.4418 -11.5215C47.9166 -8.48481 37.0111 -14.6088 31.8217 -8.34025C27.1224 -2.6637 32.7321 6.11716 35.0315 13.1336C36.9957 19.1273 40.1914 24.3587 44.1436 29.2593C48.2166 34.3097 51.8478 42.1455 58.3098 41.9979C65.3229 41.8378 68.4303 32.8239 74.0333 28.5766C77.2675 26.1249 80.5831 24.1789 84.2089 22.365C90.8249 19.0552 100.795 20.2065 104.078 13.546C107.064 7.48875 102.212 -0.169628 97.8516 -5.31361C93.9145 -9.95776 86.9036 -9.76769 81.6813 -12.8738C76.739 -15.8133 73.8632 -23.287 68.1297 -22.9915Z" fill="white"/>
</g>
<g filter="url(#filter5_g_41_28)">
<path fill-rule="evenodd" clip-rule="evenodd" d="M86.1297 -20.9915C80.3344 -20.6928 78.8278 -11.6948 73.4418 -9.52146C65.9166 -6.48481 55.0111 -12.6088 49.8217 -6.34025C45.1224 -0.663699 50.7321 8.11716 53.0315 15.1336C54.9957 21.1273 58.1914 26.3587 62.1436 31.2593C66.2166 36.3097 69.8478 44.1455 76.3098 43.9979C83.3229 43.8378 86.4303 34.8239 92.0333 30.5766C95.2675 28.1249 98.5831 26.1789 102.209 24.365C108.825 21.0552 118.795 22.2065 122.078 15.546C125.064 9.48875 120.212 1.83037 115.852 -3.31361C111.915 -7.95776 104.904 -7.76769 99.6813 -10.8738C94.739 -13.8133 91.8632 -21.287 86.1297 -20.9915Z" fill="white"/>
</g>
<g filter="url(#filter6_g_41_28)">
<path fill-rule="evenodd" clip-rule="evenodd" d="M83.1297 44.0085C77.3344 44.3072 75.8278 53.3052 70.4418 55.4785C62.9166 58.5152 52.0111 52.3912 46.8217 58.6597C42.1224 64.3363 47.7321 73.1172 50.0315 80.1336C51.9957 86.1273 55.1914 91.3587 59.1436 96.2593C63.2166 101.31 66.8478 109.146 73.3098 108.998C80.3229 108.838 83.4303 99.8239 89.0333 95.5766C92.2675 93.1249 95.5831 91.1789 99.2089 89.365C105.825 86.0552 115.795 87.2065 119.078 80.546C122.064 74.4887 117.212 66.8304 112.852 61.6864C108.915 57.0422 101.904 57.2323 96.6813 54.1262C91.739 51.1867 88.8632 43.713 83.1297 44.0085Z" fill="white"/>
</g>
<g filter="url(#filter7_g_41_28)">
<path fill-rule="evenodd" clip-rule="evenodd" d="M120.13 70.0085C114.334 70.3072 112.828 79.3052 107.442 81.4785C99.9166 84.5152 89.0111 78.3912 83.8217 84.6597C79.1224 90.3363 84.7321 99.1172 87.0315 106.134C88.9957 112.127 92.1914 117.359 96.1436 122.259C100.217 127.31 103.848 135.146 110.31 134.998C117.323 134.838 120.43 125.824 126.033 121.577C129.267 119.125 132.583 117.179 136.209 115.365C142.825 112.055 152.795 113.206 156.078 106.546C159.064 100.489 154.212 92.8304 149.852 87.6864C145.915 83.0422 138.904 83.2323 133.681 80.1262C128.739 77.1867 125.863 69.713 120.13 70.0085Z" fill="white"/>
</g>
<g filter="url(#filter8_g_41_28)">
<path fill-rule="evenodd" clip-rule="evenodd" d="M51.1297 67.0085C45.3344 67.3072 43.8278 76.3052 38.4418 78.4785C30.9166 81.5152 20.0111 75.3912 14.8217 81.6597C10.1224 87.3363 15.7321 96.1172 18.0315 103.134C19.9957 109.127 23.1914 114.359 27.1436 119.259C31.2166 124.31 34.8478 132.146 41.3098 131.998C48.3229 131.838 51.4303 122.824 57.0333 118.577C60.2675 116.125 63.5831 114.179 67.2089 112.365C73.8249 109.055 83.7954 110.206 87.0784 103.546C90.0639 97.4887 85.2123 89.8304 80.8516 84.6864C76.9145 80.0422 69.9036 80.2323 64.6813 77.1262C59.739 74.1867 56.8632 66.713 51.1297 67.0085Z" fill="white"/>
</g>
<g filter="url(#filter9_g_41_28)">
<path fill-rule="evenodd" clip-rule="evenodd" d="M8.12971 44.0085C2.33441 44.3072 0.827806 53.3052 -4.55816 55.4785C-12.0834 58.5152 -22.9889 52.3912 -28.1783 58.6597C-32.8776 64.3363 -27.2679 73.1172 -24.9685 80.1336C-23.0043 86.1273 -19.8086 91.3587 -15.8564 96.2593C-11.7834 101.31 -8.15224 109.146 -1.69017 108.998C5.32294 108.838 8.43031 99.8239 14.0333 95.5766C17.2675 93.1249 20.5831 91.1789 24.2089 89.365C30.8249 86.0552 40.7954 87.2065 44.0784 80.546C47.0639 74.4887 42.2123 66.8304 37.8516 61.6864C33.9145 57.0422 26.9036 57.2323 21.6813 54.1262C16.739 51.1867 13.8632 43.713 8.12971 44.0085Z" fill="#9BD4FF"/>
</g>
<g filter="url(#filter10_g_41_28)">
<path fill-rule="evenodd" clip-rule="evenodd" d="M14.1297 83.0085C8.33441 83.3072 6.82781 92.3052 1.44184 94.4785C-6.08343 97.5152 -16.9889 91.3912 -22.1783 97.6597C-26.8776 103.336 -21.2679 112.117 -18.9685 119.134C-17.0043 125.127 -13.8086 130.359 -9.85641 135.259C-5.78337 140.31 -2.15224 148.146 4.30983 147.998C11.3229 147.838 14.4303 138.824 20.0333 134.577C23.2675 132.125 26.5831 130.179 30.2089 128.365C36.8249 125.055 46.7954 126.206 50.0784 119.546C53.0639 113.489 48.2123 105.83 43.8516 100.686C39.9145 96.0422 32.9036 96.2323 27.6813 93.1262C22.739 90.1867 19.8632 82.713 14.1297 83.0085Z" fill="#9BD4FF"/>
</g>
<g filter="url(#filter11_g_41_28)">
<path fill-rule="evenodd" clip-rule="evenodd" d="M130.13 -27.9915C124.334 -27.6928 122.828 -18.6948 117.442 -16.5215C109.917 -13.4848 99.0111 -19.6088 93.8217 -13.3403C89.1224 -7.6637 94.7321 1.11716 97.0315 8.13359C98.9957 14.1273 102.191 19.3587 106.144 24.2593C110.217 29.3097 113.848 37.1455 120.31 36.9979C127.323 36.8378 130.43 27.8239 136.033 23.5766C139.267 21.1249 142.583 19.1789 146.209 17.365C152.825 14.0552 162.795 15.2065 166.078 8.54598C169.064 2.48875 164.212 -5.16963 159.852 -10.3136C155.915 -14.9578 148.904 -14.7677 143.681 -17.8738C138.739 -20.8133 135.863 -28.287 130.13 -27.9915Z" fill="#9BD4FF"/>
</g>
<g filter="url(#filter12_g_41_28)">
<path fill-rule="evenodd" clip-rule="evenodd" d="M168.13 -22.9915C162.334 -22.6928 160.828 -13.6948 155.442 -11.5215C147.917 -8.48481 137.011 -14.6088 131.822 -8.34025C127.122 -2.6637 132.732 6.11716 135.031 13.1336C136.996 19.1273 140.191 24.3587 144.144 29.2593C148.217 34.3097 151.848 42.1455 158.31 41.9979C165.323 41.8378 168.43 32.8239 174.033 28.5766C177.267 26.1249 180.583 24.1789 184.209 22.365C190.825 19.0552 200.795 20.2065 204.078 13.546C207.064 7.48875 202.212 -0.169628 197.852 -5.31361C193.915 -9.95776 186.904 -9.76769 181.681 -12.8738C176.739 -15.8133 173.863 -23.287 168.13 -22.9915Z" fill="#9BD4FF"/>
</g>
<g filter="url(#filter13_g_41_28)">
<path fill-rule="evenodd" clip-rule="evenodd" d="M108.13 -7.99148C102.334 -7.6928 100.828 1.30517 95.4418 3.47854C87.9166 6.51519 77.0111 0.391182 71.8217 6.65975C67.1224 12.3363 72.7321 21.1172 75.0315 28.1336C76.9957 34.1273 80.1914 39.3587 84.1436 44.2593C88.2166 49.3097 91.8478 57.1455 98.3098 56.9979C105.323 56.8378 108.43 47.8239 114.033 43.5766C117.267 41.1249 120.583 39.1789 124.209 37.365C130.825 34.0552 140.795 35.2065 144.078 28.546C147.064 22.4887 142.212 14.8304 137.852 9.68639C133.915 5.04224 126.904 5.23231 121.681 2.1262C116.739 -0.813337 113.863 -8.28698 108.13 -7.99148Z" fill="white"/>
</g>
<g filter="url(#filter14_g_41_28)">
<path fill-rule="evenodd" clip-rule="evenodd" d="M176.978 145.432C182.388 146.569 186.687 137.967 192.096 139.107C197.093 140.16 199.657 146.079 201.918 150.689C203.988 154.91 203.053 159.913 204.497 164.39C206.104 169.372 211.856 173.361 210.892 178.508C209.939 183.596 203.154 185.111 199.871 189.096C196.662 192.992 196.537 200.014 191.795 201.693C186.867 203.438 182.201 197.179 176.978 197.202C171.721 197.226 167.349 202.067 162.098 201.825C156.233 201.555 147.919 201.269 145.78 195.764C143.286 189.346 152.371 183.294 152.22 176.404C152.11 171.382 145.585 168.377 145.068 163.381C144.531 158.187 147.282 153.315 149.335 148.518C151.839 142.667 152.191 132.744 158.481 132.041C166.124 131.188 169.45 143.849 176.978 145.432Z" fill="white"/>
</g>
<g filter="url(#filter15_g_41_28)">
<path fill-rule="evenodd" clip-rule="evenodd" d="M151.978 110.432C157.388 111.569 161.687 102.967 167.096 104.107C172.093 105.16 174.657 111.079 176.918 115.689C178.988 119.91 178.053 124.913 179.497 129.39C181.104 134.372 186.856 138.361 185.892 143.508C184.939 148.596 178.154 150.111 174.871 154.096C171.662 157.992 171.537 165.014 166.795 166.693C161.867 168.438 157.201 162.179 151.978 162.202C146.721 162.226 142.349 167.067 137.098 166.825C131.233 166.555 122.919 166.269 120.78 160.764C118.286 154.346 127.371 148.294 127.22 141.404C127.11 136.382 120.585 133.377 120.068 128.381C119.531 123.187 122.282 118.315 124.335 113.518C126.839 107.667 127.191 97.7436 133.481 97.0412C141.124 96.1877 144.45 108.849 151.978 110.432Z" fill="white"/>
</g>
<g filter="url(#filter16_g_41_28)">
<path fill-rule="evenodd" clip-rule="evenodd" d="M198.978 70.4316C204.388 71.5686 208.687 62.9665 214.096 64.1067C219.093 65.1602 221.657 71.0793 223.918 75.6889C225.988 79.9097 225.053 84.9131 226.497 89.3903C228.104 94.372 233.856 98.3608 232.892 103.508C231.939 108.596 225.154 110.111 221.871 114.096C218.662 117.992 218.537 125.014 213.795 126.693C208.867 128.438 204.201 122.179 198.978 122.202C193.721 122.226 189.349 127.067 184.098 126.825C178.233 126.555 169.919 126.269 167.78 120.764C165.286 114.346 174.371 108.294 174.22 101.404C174.11 96.3819 167.585 93.3775 167.068 88.3812C166.531 83.1869 169.282 78.3146 171.335 73.5184C173.839 67.6667 174.191 57.7436 180.481 57.0412C188.124 56.1877 191.45 68.8493 198.978 70.4316Z" fill="white"/>
</g>
<g filter="url(#filter17_g_41_28)">
<path fill-rule="evenodd" clip-rule="evenodd" d="M146.139 95.6775C147.504 102.108 150.184 109.594 146.512 115.047C142.913 120.393 135.027 120.673 128.633 121.68C123.009 122.566 117.411 121.848 111.874 120.505C106.576 119.219 100.818 118.068 97.1573 114.045C93.5925 110.127 95.007 103.828 92.4754 99.1835C89.2957 93.3504 79.2215 90.0962 80.565 83.6062C81.923 77.0465 93.5394 78.9437 97.7469 73.7194C102.172 68.2248 98.1575 57.3798 104.385 54.0296C110.219 50.8909 117.58 56.2979 122.986 60.1407C127.437 63.3039 128.598 69.1688 131.845 73.5466C134.249 76.7878 137.431 79.1747 139.62 82.5634C142.316 86.738 145.11 90.8256 146.139 95.6775Z" fill="white"/>
</g>
<g filter="url(#filter18_g_41_28)">
<path fill-rule="evenodd" clip-rule="evenodd" d="M178.13 99.0085C172.334 99.3072 170.828 108.305 165.442 110.479C157.917 113.515 147.011 107.391 141.822 113.66C137.122 119.336 142.732 128.117 145.031 135.134C146.996 141.127 150.191 146.359 154.144 151.259C158.217 156.31 161.848 164.146 168.31 163.998C175.323 163.838 178.43 154.824 184.033 150.577C187.267 148.125 190.583 146.179 194.209 144.365C200.825 141.055 210.795 142.206 214.078 135.546C217.064 129.489 212.212 121.83 207.852 116.686C203.915 112.042 196.904 112.232 191.681 109.126C186.739 106.187 183.863 98.713 178.13 99.0085Z" fill="white"/>
</g>
<g filter="url(#filter19_g_41_28)">
<path fill-rule="evenodd" clip-rule="evenodd" d="M116.201 149.411C131.276 144.066 149.514 154.748 159.461 167.298C168.819 179.105 165.524 195.998 165.072 211.071C164.762 221.428 162.666 231.531 157.271 240.369C152.738 247.794 143.807 250.382 137.452 256.313C129.743 263.507 126.508 276.526 116.201 278.694C105.763 280.89 97.2708 270.673 87.305 266.864C72.3103 261.133 52.1053 264.142 43.1658 250.781C34.2455 237.45 35.0916 216.344 45.1366 203.842C55.2275 191.283 77.8485 201.497 90.631 191.707C104.026 181.447 100.31 155.047 116.201 149.411Z" fill="#4B99FF"/>
</g>
<g filter="url(#filter20_g_41_28)">
<path fill-rule="evenodd" clip-rule="evenodd" d="M96.1297 -17.9915C90.3344 -17.6928 88.8278 -8.69483 83.4418 -6.52146C75.9166 -3.48481 65.0111 -9.60882 59.8217 -3.34025C55.1224 2.3363 60.7321 11.1172 63.0315 18.1336C64.9957 24.1273 68.1914 29.3587 72.1436 34.2593C76.2166 39.3097 79.8478 47.1455 86.3098 46.9979C93.3229 46.8378 96.4303 37.8239 102.033 33.5766C105.267 31.1249 108.583 29.1789 112.209 27.365C118.825 24.0552 128.795 25.2065 132.078 18.546C135.064 12.4887 130.212 4.83037 125.852 -0.313608C121.915 -4.95776 114.904 -4.76769 109.681 -7.8738C104.739 -10.8133 101.863 -18.287 96.1297 -17.9915Z" fill="#9BD4FF"/>
</g>
<g filter="url(#filter21_g_41_28)">
<path fill-rule="evenodd" clip-rule="evenodd" d="M191.13 23.0085C185.334 23.3072 183.828 32.3052 178.442 34.4785C170.917 37.5152 160.011 31.3912 154.822 37.6597C150.122 43.3363 155.732 52.1172 158.031 59.1336C159.996 65.1273 163.191 70.3587 167.144 75.2593C171.217 80.3097 174.848 88.1455 181.31 87.9979C188.323 87.8378 191.43 78.8239 197.033 74.5766C200.267 72.1249 203.583 70.1789 207.209 68.365C213.825 65.0552 223.795 66.2065 227.078 59.546C230.064 53.4887 225.212 45.8304 220.852 40.6864C216.915 36.0422 209.904 36.2323 204.681 33.1262C199.739 30.1867 196.863 22.713 191.13 23.0085Z" fill="#9BD4FF"/>
</g>
<g filter="url(#filter22_g_41_28)">
<path fill-rule="evenodd" clip-rule="evenodd" d="M143.13 -22.9915C137.334 -22.6928 135.828 -13.6948 130.442 -11.5215C122.917 -8.48481 112.011 -14.6088 106.822 -8.34025C102.122 -2.6637 107.732 6.11716 110.031 13.1336C111.996 19.1273 115.191 24.3587 119.144 29.2593C123.217 34.3097 126.848 42.1455 133.31 41.9979C140.323 41.8378 143.43 32.8239 149.033 28.5766C152.267 26.1249 155.583 24.1789 159.209 22.365C165.825 19.0552 175.795 20.2065 179.078 13.546C182.064 7.48875 177.212 -0.169628 172.852 -5.31361C168.915 -9.95776 161.904 -9.76769 156.681 -12.8738C151.739 -15.8133 148.863 -23.287 143.13 -22.9915Z" fill="#9BD4FF"/>
</g>
<g filter="url(#filter23_g_41_28)">
<path fill-rule="evenodd" clip-rule="evenodd" d="M191.13 -22.9915C185.334 -22.6928 183.828 -13.6948 178.442 -11.5215C170.917 -8.48481 160.011 -14.6088 154.822 -8.34025C150.122 -2.6637 155.732 6.11716 158.031 13.1336C159.996 19.1273 163.191 24.3587 167.144 29.2593C171.217 34.3097 174.848 42.1455 181.31 41.9979C188.323 41.8378 191.43 32.8239 197.033 28.5766C200.267 26.1249 203.583 24.1789 207.209 22.365C213.825 19.0552 223.795 20.2065 227.078 13.546C230.064 7.48875 225.212 -0.169628 220.852 -5.31361C216.915 -9.95776 209.904 -9.76769 204.681 -12.8738C199.739 -15.8133 196.863 -23.287 191.13 -22.9915Z" fill="#9BD4FF"/>
</g>
</g>
<defs>
<filter id="filter0_g_41_28" x="-126" y="34" width="294" height="291" filterUnits="userSpaceOnUse" color-interpolation-filters="sRGB">
<feFlood flood-opacity="0" result="BackgroundImageFix"/>
<feBlend mode="normal" in="SourceGraphic" in2="BackgroundImageFix" result="shape"/>
<feTurbulence type="fractalNoise" baseFrequency="2 2" numOctaves="3" seed="6802" />
<feDisplacementMap in="shape" scale="160" xChannelSelector="R" yChannelSelector="G" result="displacedImage" width="100%" height="100%" />
<feMerge result="effect1_texture_41_28">
<feMergeNode in="displacedImage"/>
</feMerge>
</filter>
<filter id="filter1_g_41_28" x="-27" y="-52" width="203" height="193" filterUnits="userSpaceOnUse" color-interpolation-filters="sRGB">
<feFlood flood-opacity="0" result="BackgroundImageFix"/>
<feBlend mode="normal" in="SourceGraphic" in2="BackgroundImageFix" result="shape"/>
<feTurbulence type="fractalNoise" baseFrequency="2 2" numOctaves="3" seed="9670" />
<feDisplacementMap in="shape" scale="128" xChannelSelector="R" yChannelSelector="G" result="displacedImage" width="100%" height="100%" />
<feMerge result="effect1_texture_41_28">
<feMergeNode in="displacedImage"/>
</feMerge>
</filter>
<filter id="filter2_g_41_28" x="-81" y="-59" width="203" height="193" filterUnits="userSpaceOnUse" color-interpolation-filters="sRGB">
<feFlood flood-opacity="0" result="BackgroundImageFix"/>
<feBlend mode="normal" in="SourceGraphic" in2="BackgroundImageFix" result="shape"/>
<feTurbulence type="fractalNoise" baseFrequency="2 2" numOctaves="3" seed="9670" />
<feDisplacementMap in="shape" scale="128" xChannelSelector="R" yChannelSelector="G" result="displacedImage" width="100%" height="100%" />
<feMerge result="effect1_texture_41_28">
<feMergeNode in="displacedImage"/>
</feMerge>
</filter>
<filter id="filter3_g_41_28" x="-61" y="-82" width="203" height="193" filterUnits="userSpaceOnUse" color-interpolation-filters="sRGB">
<feFlood flood-opacity="0" result="BackgroundImageFix"/>
<feBlend mode="normal" in="SourceGraphic" in2="BackgroundImageFix" result="shape"/>
<feTurbulence type="fractalNoise" baseFrequency="2 2" numOctaves="3" seed="9670" />
<feDisplacementMap in="shape" scale="128" xChannelSelector="R" yChannelSelector="G" result="displacedImage" width="100%" height="100%" />
<feMerge result="effect1_texture_41_28">
<feMergeNode in="displacedImage"/>
</feMerge>
</filter>
<filter id="filter4_g_41_28" x="-34" y="-87" width="203" height="193" filterUnits="userSpaceOnUse" color-interpolation-filters="sRGB">
<feFlood flood-opacity="0" result="BackgroundImageFix"/>
<feBlend mode="normal" in="SourceGraphic" in2="BackgroundImageFix" result="shape"/>
<feTurbulence type="fractalNoise" baseFrequency="2 2" numOctaves="3" seed="9670" />
<feDisplacementMap in="shape" scale="128" xChannelSelector="R" yChannelSelector="G" result="displacedImage" width="100%" height="100%" />
<feMerge result="effect1_texture_41_28">
<feMergeNode in="displacedImage"/>
</feMerge>
</filter>
<filter id="filter5_g_41_28" x="-16" y="-85" width="203" height="193" filterUnits="userSpaceOnUse" color-interpolation-filters="sRGB">
<feFlood flood-opacity="0" result="BackgroundImageFix"/>
<feBlend mode="normal" in="SourceGraphic" in2="BackgroundImageFix" result="shape"/>
<feTurbulence type="fractalNoise" baseFrequency="2 2" numOctaves="3" seed="9670" />
<feDisplacementMap in="shape" scale="128" xChannelSelector="R" yChannelSelector="G" result="displacedImage" width="100%" height="100%" />
<feMerge result="effect1_texture_41_28">
<feMergeNode in="displacedImage"/>
</feMerge>
</filter>
<filter id="filter6_g_41_28" x="-19" y="-20" width="203" height="193" filterUnits="userSpaceOnUse" color-interpolation-filters="sRGB">
<feFlood flood-opacity="0" result="BackgroundImageFix"/>
<feBlend mode="normal" in="SourceGraphic" in2="BackgroundImageFix" result="shape"/>
<feTurbulence type="fractalNoise" baseFrequency="2 2" numOctaves="3" seed="9670" />
<feDisplacementMap in="shape" scale="128" xChannelSelector="R" yChannelSelector="G" result="displacedImage" width="100%" height="100%" />
<feMerge result="effect1_texture_41_28">
<feMergeNode in="displacedImage"/>
</feMerge>
</filter>
<filter id="filter7_g_41_28" x="18" y="6" width="203" height="193" filterUnits="userSpaceOnUse" color-interpolation-filters="sRGB">
<feFlood flood-opacity="0" result="BackgroundImageFix"/>
<feBlend mode="normal" in="SourceGraphic" in2="BackgroundImageFix" result="shape"/>
<feTurbulence type="fractalNoise" baseFrequency="2 2" numOctaves="3" seed="9670" />
<feDisplacementMap in="shape" scale="128" xChannelSelector="R" yChannelSelector="G" result="displacedImage" width="100%" height="100%" />
<feMerge result="effect1_texture_41_28">
<feMergeNode in="displacedImage"/>
</feMerge>
</filter>
<filter id="filter8_g_41_28" x="-51" y="3" width="203" height="193" filterUnits="userSpaceOnUse" color-interpolation-filters="sRGB">
<feFlood flood-opacity="0" result="BackgroundImageFix"/>
<feBlend mode="normal" in="SourceGraphic" in2="BackgroundImageFix" result="shape"/>
<feTurbulence type="fractalNoise" baseFrequency="2 2" numOctaves="3" seed="9670" />
<feDisplacementMap in="shape" scale="128" xChannelSelector="R" yChannelSelector="G" result="displacedImage" width="100%" height="100%" />
<feMerge result="effect1_texture_41_28">
<feMergeNode in="displacedImage"/>
</feMerge>
</filter>
<filter id="filter9_g_41_28" x="-94" y="-20" width="203" height="193" filterUnits="userSpaceOnUse" color-interpolation-filters="sRGB">
<feFlood flood-opacity="0" result="BackgroundImageFix"/>
<feBlend mode="normal" in="SourceGraphic" in2="BackgroundImageFix" result="shape"/>
<feTurbulence type="fractalNoise" baseFrequency="2 2" numOctaves="3" seed="9670" />
<feDisplacementMap in="shape" scale="128" xChannelSelector="R" yChannelSelector="G" result="displacedImage" width="100%" height="100%" />
<feMerge result="effect1_texture_41_28">
<feMergeNode in="displacedImage"/>
</feMerge>
</filter>
<filter id="filter10_g_41_28" x="-88" y="19" width="203" height="193" filterUnits="userSpaceOnUse" color-interpolation-filters="sRGB">
<feFlood flood-opacity="0" result="BackgroundImageFix"/>
<feBlend mode="normal" in="SourceGraphic" in2="BackgroundImageFix" result="shape"/>
<feTurbulence type="fractalNoise" baseFrequency="2 2" numOctaves="3" seed="9670" />
<feDisplacementMap in="shape" scale="128" xChannelSelector="R" yChannelSelector="G" result="displacedImage" width="100%" height="100%" />
<feMerge result="effect1_texture_41_28">
<feMergeNode in="displacedImage"/>
</feMerge>
</filter>
<filter id="filter11_g_41_28" x="28" y="-92" width="203" height="193" filterUnits="userSpaceOnUse" color-interpolation-filters="sRGB">
<feFlood flood-opacity="0" result="BackgroundImageFix"/>
<feBlend mode="normal" in="SourceGraphic" in2="BackgroundImageFix" result="shape"/>
<feTurbulence type="fractalNoise" baseFrequency="2 2" numOctaves="3" seed="9670" />
<feDisplacementMap in="shape" scale="128" xChannelSelector="R" yChannelSelector="G" result="displacedImage" width="100%" height="100%" />
<feMerge result="effect1_texture_41_28">
<feMergeNode in="displacedImage"/>
</feMerge>
</filter>
<filter id="filter12_g_41_28" x="66" y="-87" width="203" height="193" filterUnits="userSpaceOnUse" color-interpolation-filters="sRGB">
<feFlood flood-opacity="0" result="BackgroundImageFix"/>
<feBlend mode="normal" in="SourceGraphic" in2="BackgroundImageFix" result="shape"/>
<feTurbulence type="fractalNoise" baseFrequency="2 2" numOctaves="3" seed="9670" />
<feDisplacementMap in="shape" scale="128" xChannelSelector="R" yChannelSelector="G" result="displacedImage" width="100%" height="100%" />
<feMerge result="effect1_texture_41_28">
<feMergeNode in="displacedImage"/>
</feMerge>
</filter>
<filter id="filter13_g_41_28" x="6" y="-72" width="203" height="193" filterUnits="userSpaceOnUse" color-interpolation-filters="sRGB">
<feFlood flood-opacity="0" result="BackgroundImageFix"/>
<feBlend mode="normal" in="SourceGraphic" in2="BackgroundImageFix" result="shape"/>
<feTurbulence type="fractalNoise" baseFrequency="2 2" numOctaves="3" seed="9670" />
<feDisplacementMap in="shape" scale="128" xChannelSelector="R" yChannelSelector="G" result="displacedImage" width="100%" height="100%" />
<feMerge result="effect1_texture_41_28">
<feMergeNode in="displacedImage"/>
</feMerge>
</filter>
<filter id="filter14_g_41_28" x="75" y="62" width="206" height="210" filterUnits="userSpaceOnUse" color-interpolation-filters="sRGB">
<feFlood flood-opacity="0" result="BackgroundImageFix"/>
<feBlend mode="normal" in="SourceGraphic" in2="BackgroundImageFix" result="shape"/>
<feTurbulence type="fractalNoise" baseFrequency="2 2" numOctaves="3" seed="5527" />
<feDisplacementMap in="shape" scale="140" xChannelSelector="R" yChannelSelector="G" result="displacedImage" width="100%" height="100%" />
<feMerge result="effect1_texture_41_28">
<feMergeNode in="displacedImage"/>
</feMerge>
</filter>
<filter id="filter15_g_41_28" x="50" y="27" width="206" height="210" filterUnits="userSpaceOnUse" color-interpolation-filters="sRGB">
<feFlood flood-opacity="0" result="BackgroundImageFix"/>
<feBlend mode="normal" in="SourceGraphic" in2="BackgroundImageFix" result="shape"/>
<feTurbulence type="fractalNoise" baseFrequency="2 2" numOctaves="3" seed="5527" />
<feDisplacementMap in="shape" scale="140" xChannelSelector="R" yChannelSelector="G" result="displacedImage" width="100%" height="100%" />
<feMerge result="effect1_texture_41_28">
<feMergeNode in="displacedImage"/>
</feMerge>
</filter>
<filter id="filter16_g_41_28" x="97" y="-13" width="206" height="210" filterUnits="userSpaceOnUse" color-interpolation-filters="sRGB">
<feFlood flood-opacity="0" result="BackgroundImageFix"/>
<feBlend mode="normal" in="SourceGraphic" in2="BackgroundImageFix" result="shape"/>
<feTurbulence type="fractalNoise" baseFrequency="2 2" numOctaves="3" seed="5527" />
<feDisplacementMap in="shape" scale="140" xChannelSelector="R" yChannelSelector="G" result="displacedImage" width="100%" height="100%" />
<feMerge result="effect1_texture_41_28">
<feMergeNode in="displacedImage"/>
</feMerge>
</filter>
<filter id="filter17_g_41_28" x="20.4424" y="-6.9108" width="187.925" height="188.982" filterUnits="userSpaceOnUse" color-interpolation-filters="sRGB">
<feFlood flood-opacity="0" result="BackgroundImageFix"/>
<feBlend mode="normal" in="SourceGraphic" in2="BackgroundImageFix" result="shape"/>
<feTurbulence type="fractalNoise" baseFrequency="2 2" numOctaves="3" seed="7154" />
<feDisplacementMap in="shape" scale="120" xChannelSelector="R" yChannelSelector="G" result="displacedImage" width="100%" height="100%" />
<feMerge result="effect1_texture_41_28">
<feMergeNode in="displacedImage"/>
</feMerge>
</filter>
<filter id="filter18_g_41_28" x="76" y="35" width="203" height="193" filterUnits="userSpaceOnUse" color-interpolation-filters="sRGB">
<feFlood flood-opacity="0" result="BackgroundImageFix"/>
<feBlend mode="normal" in="SourceGraphic" in2="BackgroundImageFix" result="shape"/>
<feTurbulence type="fractalNoise" baseFrequency="2 2" numOctaves="3" seed="9670" />
<feDisplacementMap in="shape" scale="128" xChannelSelector="R" yChannelSelector="G" result="displacedImage" width="100%" height="100%" />
<feMerge result="effect1_texture_41_28">
<feMergeNode in="displacedImage"/>
</feMerge>
</filter>
<filter id="filter19_g_41_28" x="-45" y="66" width="293" height="295" filterUnits="userSpaceOnUse" color-interpolation-filters="sRGB">
<feFlood flood-opacity="0" result="BackgroundImageFix"/>
<feBlend mode="normal" in="SourceGraphic" in2="BackgroundImageFix" result="shape"/>
<feTurbulence type="fractalNoise" baseFrequency="2 2" numOctaves="3" seed="1457" />
<feDisplacementMap in="shape" scale="164" xChannelSelector="R" yChannelSelector="G" result="displacedImage" width="100%" height="100%" />
<feMerge result="effect1_texture_41_28">
<feMergeNode in="displacedImage"/>
</feMerge>
</filter>
<filter id="filter20_g_41_28" x="-6" y="-82" width="203" height="193" filterUnits="userSpaceOnUse" color-interpolation-filters="sRGB">
<feFlood flood-opacity="0" result="BackgroundImageFix"/>
<feBlend mode="normal" in="SourceGraphic" in2="BackgroundImageFix" result="shape"/>
<feTurbulence type="fractalNoise" baseFrequency="2 2" numOctaves="3" seed="9670" />
<feDisplacementMap in="shape" scale="128" xChannelSelector="R" yChannelSelector="G" result="displacedImage" width="100%" height="100%" />
<feMerge result="effect1_texture_41_28">
<feMergeNode in="displacedImage"/>
</feMerge>
</filter>
<filter id="filter21_g_41_28" x="89" y="-41" width="203" height="193" filterUnits="userSpaceOnUse" color-interpolation-filters="sRGB">
<feFlood flood-opacity="0" result="BackgroundImageFix"/>
<feBlend mode="normal" in="SourceGraphic" in2="BackgroundImageFix" result="shape"/>
<feTurbulence type="fractalNoise" baseFrequency="2 2" numOctaves="3" seed="9670" />
<feDisplacementMap in="shape" scale="128" xChannelSelector="R" yChannelSelector="G" result="displacedImage" width="100%" height="100%" />
<feMerge result="effect1_texture_41_28">
<feMergeNode in="displacedImage"/>
</feMerge>
</filter>
<filter id="filter22_g_41_28" x="41" y="-87" width="203" height="193" filterUnits="userSpaceOnUse" color-interpolation-filters="sRGB">
<feFlood flood-opacity="0" result="BackgroundImageFix"/>
<feBlend mode="normal" in="SourceGraphic" in2="BackgroundImageFix" result="shape"/>
<feTurbulence type="fractalNoise" baseFrequency="2 2" numOctaves="3" seed="9670" />
<feDisplacementMap in="shape" scale="128" xChannelSelector="R" yChannelSelector="G" result="displacedImage" width="100%" height="100%" />
<feMerge result="effect1_texture_41_28">
<feMergeNode in="displacedImage"/>
</feMerge>
</filter>
<filter id="filter23_g_41_28" x="89" y="-87" width="203" height="193" filterUnits="userSpaceOnUse" color-interpolation-filters="sRGB">
<feFlood flood-opacity="0" result="BackgroundImageFix"/>
<feBlend mode="normal" in="SourceGraphic" in2="BackgroundImageFix" result="shape"/>
<feTurbulence type="fractalNoise" baseFrequency="2 2" numOctaves="3" seed="9670" />
<feDisplacementMap in="shape" scale="128" xChannelSelector="R" yChannelSelector="G" result="displacedImage" width="100%" height="100%" />
<feMerge result="effect1_texture_41_28">
<feMergeNode in="displacedImage"/>
</feMerge>
</filter>
<linearGradient id="paint0_linear_41_28" x1="100" y1="-3.20375e-06" x2="-7.50001" y2="282" gradientUnits="userSpaceOnUse">
<stop stop-color="#D6EFFF"/>
<stop offset="1" stop-color="#3A85FF"/>
</linearGradient>
<clipPath id="clip0_41_28">
<rect width="200" height="200" rx="100" fill="white"/>
</clipPath>
</defs>
</svg>
